<svg width="100%" height="100%" viewBox="0 0 188 55" fill="currentColor" xmlns="http://www.w3.org/2000/svg">
<path fill="current" d="M49.0573 34.442C49.2245 40.2457 49.3327 45.8034 49.5823 51.3547C49.6757 53.4316 48.9029 54.2503 46.8658 54.0436C45.9635 53.952 45.0352 53.9461 44.1343 54.0446C42.0256 54.2751 40.9918 53.5587 41.2907 51.2774C41.4164 50.3176 41.4918 49.0286 40.0251 49.0809C38.475 49.1361 36.6132 48.182 35.4511 49.9572C34.6557 51.1723 34.8251 52.9213 33.4677 53.8512C32.9231 54.2243 27.9704 54.0763 26.0823 53.7316C25.5383 52.9612 26.0793 52.3138 26.3731 51.6695C30.1555 43.3744 33.992 35.1037 37.7157 26.7823C38.5031 25.0229 39.5276 24.18 41.4937 24.352C43.1389 24.4959 44.8095 24.4521 46.4627 24.3696C48.1845 24.2838 48.8666 25.0999 48.8895 26.7244C48.9247 29.2143 48.9975 31.7038 49.0573 34.442ZM32.5087 46.4164C37.1283 45.2341 41.7479 44.0519 46.3675 42.8696C45.7837 42.4393 45.2952 42.368 44.8087 42.2855C41.5992 41.7418 41.4204 41.6045 41.9303 38.2991C42.2566 36.1842 42.3301 34.0939 42.1194 31.9362C41.4898 33.1867 40.9217 34.4556 40.5884 35.7836C39.5178 40.0485 37.7718 43.6885 33.1393 45.1342C32.0903 45.4615 31.1852 46.2518 30.2139 46.8289C30.2492 46.9122 30.2845 46.9954 30.3199 47.0786C30.9346 46.8921 31.5493 46.7055 32.5087 46.4164Z" />
<path fill="current" d="M117.196 24.8816C121.483 24.879 125.541 24.9169 129.598 24.8608C131.515 24.8344 132.31 25.3324 131.794 27.4936C130.829 31.5297 130.941 31.5568 126.901 31.5709C125.741 31.5749 124.574 31.6691 123.425 31.5615C121.043 31.3386 120.884 33.1436 120.817 34.6355C120.739 36.3702 122.315 35.695 123.257 35.8248C123.908 35.9144 124.58 35.8477 125.242 35.8483C129.451 35.852 129.481 35.9381 128.535 39.9997C128.17 41.5639 127.4 42.2855 125.781 42.1301C124.96 42.0513 124.126 42.1155 123.298 42.1183C118.791 42.1332 118.725 42.1992 118.527 47.0914C120.768 47.5702 123.073 47.2691 125.346 47.2948C127.24 47.3162 127.796 47.9957 127.376 49.9073C126.477 53.9881 126.559 54.0098 122.511 54.0129C118.785 54.0157 115.058 53.9804 111.332 54.0199C109.582 54.0385 108.762 53.6829 109.241 51.5688C111.068 43.4977 112.724 35.3876 114.423 27.2877C114.722 25.8617 115.216 24.7275 117.196 24.8816Z" />
<path fill="current" d="M60.9132 47.8083C63.1797 48.5326 63.3215 46.7741 63.6167 45.5127C64.5412 41.5638 65.3902 37.5936 66.1234 33.6048C66.4382 31.8924 67.205 31.2885 68.9413 31.2618C75.0799 31.1673 75.1154 31.1179 73.9553 37.0219C72.9814 41.9783 71.8803 46.9096 70.8972 51.8643C70.5772 53.4775 69.8318 54.5372 68.0941 54.2944C66.0774 54.0126 63.8001 55.2696 62.0502 53.2521C61.6243 52.761 61.1366 53.3625 60.7546 53.5798C59.5807 54.2477 58.3225 54.6596 57.0049 54.8266C53.3031 55.2955 50.8895 52.7125 51.6341 49.0928C52.6687 44.0636 53.8023 39.0537 54.7569 34.0096C55.1542 31.9105 56.1241 31.0142 58.2761 31.2701C59.9761 31.4722 61.729 31.0651 63.6594 31.6047C63.1966 37.1048 61.0676 42.2398 60.9132 47.8083Z" />
<path fill="current" d="M110.125 38.806C109.577 42.1268 109.076 45.2357 107.794 48.1437C105.218 53.9836 97.5541 56.7193 91.83 53.8557C89.4692 52.6747 88.5101 50.6038 88.5934 48.1449C88.7315 44.0639 89.4988 40.0519 91.353 36.3895C94.0791 31.0052 102.067 28.7942 107.348 31.8625C109.939 33.368 110.197 35.9334 110.125 38.806ZM97.5689 48.6741C98.6014 49.1815 99.1637 48.5538 99.4682 47.7404C100.625 44.6494 101.381 41.4591 101.527 38.1485C101.556 37.4868 101.489 36.7469 100.594 36.6738C99.8106 36.6098 99.3657 37.1808 99.1713 37.8209C98.1248 41.2678 96.9121 44.693 97.5689 48.6741Z" />
<path fill="current" d="M151.315 37.5405C154.153 30.8641 159.873 29.9852 165.945 31.1482C168.974 31.7283 170.355 34.1412 170.238 37.5477C170.229 37.795 170.184 38.0411 170.153 38.2874C169.414 44.1928 169.414 44.1775 163.549 44.1323C162.312 44.1228 161.075 44.3199 159.837 44.3333C158.417 44.3488 157.672 45.0871 157.543 46.4153C157.452 47.3465 156.89 48.6171 158.062 49.0938C159.418 49.6456 159.951 48.428 160.275 47.384C160.899 45.3716 162.532 45.7251 163.959 45.7994C165.304 45.8694 167.169 45.066 167.872 46.4172C168.634 47.8816 167.345 49.3918 166.483 50.6826C163.697 54.8527 155.517 56.2987 151.473 53.3616C149.877 52.202 149.246 50.5502 149.187 48.6248C149.07 44.8361 149.977 41.2444 151.315 37.5405ZM159.672 39.2455C159.913 39.2947 160.151 39.369 160.393 39.3891C161.657 39.4936 162.201 38.8356 162.221 37.6328C162.233 36.9306 162.149 36.2167 161.284 36.1657C160.028 36.0917 159.6 36.9937 159.412 38.0414C159.356 38.3535 159.426 38.6883 159.672 39.2455Z" />
<path fill="current" d="M143.072 52.0484C142.498 53.7966 141.43 54.4083 139.795 54.3285C137.896 54.2359 135.99 54.3058 134.087 54.2791C132.925 54.2628 132.326 53.7567 132.237 52.4761C131.792 46.1039 131.817 39.7243 131.783 33.3437C131.776 31.8464 132.415 31.3637 133.864 31.2799C140.58 30.8917 140.955 31.1893 139.901 37.7863C139.547 39.9957 139.85 42.252 139.425 44.4932C140.635 40.9802 141.938 37.4954 143.019 33.9429C143.619 31.9719 144.596 31.0015 146.73 31.2767C148.421 31.4948 150.175 31.0117 152.317 31.7557C149.224 38.5393 146.185 45.2046 143.072 52.0484Z" />
<path fill="current" d="M76.457 53.785C74.9207 52.4351 75.008 50.909 75.3585 49.3C76.2032 45.4231 77.018 41.5397 77.8176 37.7873C77.2844 36.7286 75.2831 37.0606 75.8929 35.4642C76.4756 33.9384 75.6416 31.6623 78.3262 31.1715C80.0352 30.859 79.7449 28.9985 79.8924 27.8386C80.2198 25.2649 81.3723 24.3843 83.9619 24.4524C89.1385 24.5883 89.1408 24.4566 88.1371 29.5427C88.0595 29.9355 88.0154 30.3348 87.9645 30.6727C88.6592 31.5949 90.7588 31.0586 90.2011 32.8562C89.6986 34.476 90.443 37.0133 87.4765 37.0962C86.6507 37.1193 86.4201 37.7493 86.2705 38.4429C85.6765 41.1962 85.0978 43.9534 84.4511 46.6943C84.0317 48.472 85.496 48.6591 86.6455 49.0856C86.494 50.1031 86.3362 50.9098 86.2597 51.7243C86.056 53.893 84.857 54.7082 82.7478 54.535C80.7037 54.3673 78.594 54.8755 76.457 53.785Z" />
<path fill="current" d="M179.518 31.2928C180.864 31.2435 181.926 31.3046 181.982 32.9629C183.889 31.5686 185.495 30.1442 187.973 31.1346C188.157 33.3549 187.362 35.4408 186.837 37.5563C186.534 38.7798 185.443 38.5748 184.577 38.5062C181.798 38.2857 180.481 39.7651 179.957 42.2848C179.268 45.6019 178.527 48.9084 177.871 52.2319C177.636 53.4257 177.179 54.2835 175.839 54.2814C173.706 54.2779 171.552 54.571 169.44 53.9391C168.737 52.6423 169.497 51.4616 169.724 50.3129C170.735 45.2068 171.883 40.128 172.984 35.0398C173.794 31.2985 173.795 31.2988 177.562 31.2938C178.141 31.293 178.72 31.2925 179.518 31.2928Z" />
<path fill="current" d="M69.7466 7.05478C69.8292 -0.896358 68.861 0.124596 76.4517 0.0406593C78.1832 0.0215044 79.9263 -0.000309754 81.6452 0.170172C83.7204 0.375999 84.9381 1.49428 84.9045 3.7596C84.8579 6.9014 84.8679 10.0447 84.9035 13.1868C84.9302 15.5421 83.8037 16.7251 81.4729 16.7679C78.3391 16.8254 75.205 16.8674 72.0711 16.9154C70.4347 16.9405 69.6833 16.1928 69.7351 14.4962C69.8083 12.1003 69.7493 9.70034 69.7466 7.05478ZM80.7887 12.329C81.3445 10.0387 80.9746 7.71558 81.0241 5.40776C81.0447 4.44603 80.576 3.93756 79.5706 3.75104C74.842 2.8737 73.9238 3.60257 73.922 8.37342C73.9216 9.3682 73.9358 10.363 73.9319 11.3577C73.9281 12.3311 74.3244 12.9979 75.3613 12.9921C77.0792 12.9823 78.8302 13.3836 80.7887 12.329Z" />
<path fill="current" d="M87.8928 2.04474C88.6783 0.470654 89.9868 0.137116 91.3211 0.100745C94.3751 0.0175223 97.4326 0.0731841 100.489 0.0504267C102.044 0.038843 102.72 0.779869 102.709 2.33356C102.679 6.47066 102.687 10.6083 102.717 14.7454C102.728 16.162 102.197 16.9115 100.689 16.8867C99.1569 16.8615 98.4577 16.227 98.481 14.6234C98.4952 13.6425 99.0192 12.0988 97.6013 11.864C95.7 11.5491 93.5817 11.1229 91.8263 12.1797C90.881 12.7488 91.4091 14.1908 91.4245 15.2356C91.4417 16.3997 90.9799 16.9789 89.8338 16.8848C88.8201 16.8015 87.5084 17.0399 87.5507 15.3639C87.6609 10.9891 87.2081 6.60348 87.8928 2.04474ZM94.4943 3.73948C94.1651 3.74131 93.8346 3.76352 93.5071 3.74154C91.8604 3.631 91.4016 4.53266 91.352 6.02326C91.2985 7.6297 92.1205 8.01118 93.4877 7.95675C94.6381 7.91095 95.7911 7.93096 96.943 7.92431C97.9291 7.91862 98.3903 7.46499 98.5071 6.44028C98.7753 4.0876 98.3703 3.75092 94.4943 3.73948Z" />
<path fill="current" d="M41.4112 16.9625C34.3101 16.9437 34.3103 16.9437 34.3152 9.9704C34.3169 7.48449 34.3463 4.99811 34.3066 2.51286C34.2843 1.1175 34.4854 0.0705798 36.2503 0.0416351C38.1253 0.0109045 38.4233 1.12703 38.4169 2.61834C38.4051 5.35275 38.529 8.09283 38.3888 10.8198C38.2958 12.6295 38.9963 13.2452 40.6753 13.0402C40.7568 13.0302 40.8406 13.0382 40.9233 13.0392C45.3044 13.0923 45.3018 13.0923 45.3039 8.80856C45.3049 6.57127 45.341 4.33371 45.3147 2.09682C45.2992 0.788134 45.8013 0.0572928 47.1846 0.0541919C48.521 0.0512046 49.4691 0.471812 49.4687 2.00719C49.4676 5.73571 49.5157 9.46555 49.4304 13.1922C49.3794 15.4236 48.1749 16.7195 45.8637 16.8136C44.4604 16.8707 43.0566 16.9142 41.4112 16.9625Z" />
<path fill="current" d="M9.83504 10.2324C9.37262 10.1987 9.12446 10.1867 8.87624 10.185C4.44377 10.1544 4.42445 10.1538 4.21381 14.58C4.15246 15.8687 3.99964 16.8417 2.30384 16.7778C0.835515 16.7226 -0.0267297 16.3991 0.00063222 14.684C0.0680586 10.4566 0.0420623 6.22713 0.00946455 1.99884C-0.00109771 0.629612 0.600229 0.0294476 1.94432 0.0447175C3.15262 0.0584601 4.09034 0.364034 4.16256 1.7899C4.19192 2.36905 4.26542 2.9596 4.1906 3.52802C3.88384 5.85877 4.92276 6.53781 7.16631 6.45729C10.9138 6.32283 10.943 6.44331 11.0693 2.73043C11.1188 1.27618 11.2904 0.0926038 13.1712 0.0520524C15.1033 0.0103917 15.2496 1.18592 15.2366 2.65959C15.2017 6.63913 15.1919 10.6195 15.2331 14.5988C15.2487 16.1017 14.7774 16.9582 13.1249 16.9429C11.4443 16.9274 11.1544 15.961 11.0301 14.5274C10.905 13.0842 11.8489 11.3291 9.83504 10.2324Z"/>
<path fill="current" d="M52.1615 1.99534C52.0756 0.443173 52.9047 0.0682551 54.0382 0.066408C57.1862 0.0612623 60.3362 0.00597262 63.4815 0.101836C65.6773 0.168747 67.1247 1.3334 67.1854 3.63598C67.2859 7.44999 67.2467 11.2678 67.2612 15.084C67.2665 16.4974 66.4303 16.9382 65.1631 16.9093C63.884 16.8801 63.1656 16.3836 63.1849 14.9685C63.2244 12.0643 63.1181 9.157 63.2022 6.25479C63.2532 4.49619 62.7171 3.72527 60.8166 3.70043C56.042 3.63804 56.0445 3.55861 56.0417 8.32744C56.0403 10.5683 56.0087 12.8095 56.0349 15.05C56.052 16.5165 55.2612 16.8618 53.9683 16.8084C52.6681 16.7548 52.0497 16.3471 52.0864 14.8762C52.1917 10.6518 52.1483 6.42371 52.1615 1.99534Z" />
<path fill="current" d="M26.9802 15.2677C26.6023 17.2731 25.2231 16.9399 24.0138 16.8699C23.0495 16.814 22.3602 16.2268 22.5225 15.2633C23.3512 10.3434 20.0873 7.08083 17.8684 3.38295C17.335 2.49402 16.4391 1.7584 16.494 0.416474C18.6229 -0.266436 20.465 -0.33825 21.7291 1.99168C22.5523 3.50919 23.5217 4.94713 24.5732 6.66116C25.9793 5.33372 26.6458 3.7257 27.5403 2.30468C29.1042 -0.17945 29.8808 -0.473843 33.0067 0.620598C31.2672 5.54299 25.9749 9.02869 26.9802 15.2677Z" />
<path fill="current" d="M110.06 14.3047C110.136 16.2252 109.38 16.8493 107.651 16.7856C105.956 16.723 105.547 15.8937 105.559 14.429C105.591 10.448 105.594 6.46651 105.572 2.48545C105.563 0.863973 106.193 0.0293789 107.919 0.036174C109.763 0.0434328 110.094 1.12134 110.083 2.63645C110.055 6.45161 110.069 10.2671 110.06 14.3047Z" />
</svg>
