<svg width="100%" height="100%" viewBox="0 0 40 9" fill="white" xmlns="http://www.w3.org/2000/svg">
<path d="M6.3125 4.15625C6.3125 2.96539 5.34711 2 4.15625 2C2.96539 2 2 2.96539 2 4.15625C2 5.34711 2.96539 6.3125 4.15625 6.3125C5.34711 6.3125 6.3125 5.34711 6.3125 4.15625Z" stroke="white" stroke-width="4" stroke-linecap="round" stroke-linejoin="round"/>
<path d="M22.125 4.15625C22.125 2.96539 21.1596 2 19.9688 2C18.7779 2 17.8125 2.96539 17.8125 4.15625C17.8125 5.34711 18.7779 6.3125 19.9688 6.3125C21.1596 6.3125 22.125 5.34711 22.125 4.15625Z" stroke="white" stroke-width="4" stroke-linecap="round" stroke-linejoin="round"/>
<path d="M37.9375 4.15625C37.9375 2.96539 36.9721 2 35.7812 2C34.5904 2 33.625 2.96539 33.625 4.15625C33.625 5.34711 34.5904 6.3125 35.7812 6.3125C36.9721 6.3125 37.9375 5.34711 37.9375 4.15625Z" stroke="white" stroke-width="4" stroke-linecap="round" stroke-linejoin="round"/>
</svg>
