<svg width="current" height="current" viewBox="0 0 600 90" fill="none" xmlns="http://www.w3.org/2000/svg">
<path d="M0 12C0 5.37258 5.37258 0 12 0H588C594.627 0 600 5.37258 600 12V78C600 84.6274 594.627 90 588 90H12C5.37257 90 0 84.6274 0 78V12Z" fill="#FF8944"/>
<path d="M271.952 37.224C271.952 39.0347 271.859 40.724 271.672 42.292C271.485 43.86 271.224 45.3627 270.888 46.8H275.312C275.405 46.8 275.499 46.8467 275.592 46.94C275.685 47.0333 275.732 47.1267 275.732 47.22V49.068C275.732 49.1613 275.685 49.2547 275.592 49.348C275.499 49.4413 275.405 49.488 275.312 49.488H264.504V60.408C264.504 60.6693 264.373 60.8 264.112 60.8H261.676C261.415 60.8 261.284 60.6693 261.284 60.408V49.488H250.924C250.812 49.488 250.719 49.4413 250.644 49.348C250.569 49.2547 250.532 49.1613 250.532 49.068V47.22C250.532 47.108 250.569 47.0147 250.644 46.94C250.719 46.8467 250.812 46.8 250.924 46.8H267.808C268.069 45.6613 268.293 44.364 268.48 42.908C268.667 41.4333 268.76 39.968 268.76 38.512C268.76 38.2507 268.695 38.092 268.564 38.036C268.433 37.9613 268.237 37.924 267.976 37.924H254.48C254.387 37.924 254.293 37.896 254.2 37.84C254.107 37.7653 254.06 37.6813 254.06 37.588V35.572C254.06 35.46 254.107 35.376 254.2 35.32C254.293 35.264 254.387 35.236 254.48 35.236H270.104C270.701 35.236 271.159 35.3947 271.476 35.712C271.793 36.0293 271.952 36.5333 271.952 37.224ZM298.816 60.184C298.816 60.2773 298.769 60.3613 298.676 60.436C298.583 60.5293 298.499 60.576 298.424 60.576H282.772C282.044 60.576 281.549 60.4453 281.288 60.184C281.027 59.9227 280.896 59.4933 280.896 58.896V55.172C280.896 54.5747 281.017 54.1453 281.26 53.884C281.521 53.6227 282.016 53.492 282.744 53.492H294.672C294.821 53.492 294.915 53.4827 294.952 53.464C294.989 53.4267 295.008 53.324 295.008 53.156V51.812C295.008 51.6067 294.989 51.4853 294.952 51.448C294.915 51.4107 294.812 51.392 294.644 51.392H281.232C281.139 51.392 281.045 51.3547 280.952 51.28C280.877 51.2053 280.84 51.1213 280.84 51.028V49.152C280.84 49.0587 280.877 48.9747 280.952 48.9C281.045 48.8253 281.139 48.788 281.232 48.788H296.24C297.005 48.788 297.509 48.9093 297.752 49.152C298.013 49.376 298.144 49.8053 298.144 50.44V54.22C298.144 54.8547 298.013 55.2933 297.752 55.536C297.509 55.76 297.005 55.872 296.24 55.872H284.396C284.247 55.872 284.153 55.9 284.116 55.956C284.079 55.9933 284.06 56.0867 284.06 56.236V57.636C284.06 57.804 284.079 57.9067 284.116 57.944C284.153 57.9627 284.256 57.972 284.424 57.972H298.396C298.489 57.972 298.583 58 298.676 58.056C298.769 58.1307 298.816 58.224 298.816 58.336V60.184ZM298.284 36.72C298.284 37.1307 298.265 37.6067 298.228 38.148C298.209 38.6893 298.172 39.268 298.116 39.884C298.06 40.5 297.985 41.144 297.892 41.816C297.799 42.4693 297.687 43.104 297.556 43.72H301.504C301.597 43.72 301.709 43.7667 301.84 43.86C301.971 43.9533 302.036 44.056 302.036 44.168V45.932C302.036 46.0253 301.989 46.1187 301.896 46.212C301.803 46.3053 301.709 46.352 301.616 46.352H277.256C277.144 46.352 277.051 46.3053 276.976 46.212C276.901 46.1187 276.864 46.0253 276.864 45.932V44.168C276.864 43.8693 276.995 43.72 277.256 43.72H294.616C294.803 42.824 294.943 41.8907 295.036 40.92C295.129 39.9493 295.176 38.9973 295.176 38.064C295.176 37.8027 295.111 37.644 294.98 37.588C294.849 37.5133 294.653 37.476 294.392 37.476H281.316C281.223 37.476 281.129 37.448 281.036 37.392C280.943 37.3173 280.896 37.2333 280.896 37.14V35.18C280.896 35.068 280.943 34.984 281.036 34.928C281.129 34.872 281.223 34.844 281.316 34.844H296.436C297.033 34.844 297.491 35.012 297.808 35.348C298.125 35.6653 298.284 36.1227 298.284 36.72ZM336.244 56.04C336.244 56.1333 336.197 56.2267 336.104 56.32C336.01 56.4133 335.917 56.46 335.824 56.46H311.436C311.324 56.46 311.23 56.4133 311.156 56.32C311.081 56.2267 311.044 56.1333 311.044 56.04V54.276C311.044 54.164 311.081 54.0613 311.156 53.968C311.23 53.8747 311.324 53.828 311.436 53.828H322.048V49.656H317.036C316.625 49.656 316.289 49.628 316.028 49.572C315.766 49.516 315.561 49.4133 315.412 49.264C315.262 49.1147 315.16 48.928 315.104 48.704C315.048 48.4613 315.02 48.1533 315.02 47.78V43.272C315.02 42.8987 315.048 42.6 315.104 42.376C315.16 42.1333 315.262 41.9467 315.412 41.816C315.561 41.6667 315.766 41.5733 316.028 41.536C316.289 41.48 316.625 41.452 317.036 41.452H328.684C328.87 41.452 328.982 41.4333 329.02 41.396C329.076 41.34 329.104 41.2093 329.104 41.004V38.82C329.104 38.6147 329.076 38.5027 329.02 38.484C328.982 38.4467 328.87 38.428 328.684 38.428H315.496C315.402 38.428 315.318 38.3907 315.244 38.316C315.169 38.2227 315.132 38.1293 315.132 38.036V36.16C315.132 36.0667 315.169 35.9827 315.244 35.908C315.318 35.8333 315.402 35.796 315.496 35.796H330.224C331.008 35.796 331.54 35.9267 331.82 36.188C332.1 36.4307 332.24 36.916 332.24 37.644V42.18C332.24 42.908 332.1 43.4027 331.82 43.664C331.54 43.9067 331.008 44.028 330.224 44.028H318.548C318.361 44.028 318.249 44.0467 318.212 44.084C318.174 44.1213 318.156 44.2333 318.156 44.42V46.632C318.156 46.8373 318.174 46.968 318.212 47.024C318.268 47.0613 318.389 47.08 318.576 47.08H332.464C332.557 47.08 332.641 47.1173 332.716 47.192C332.79 47.248 332.828 47.3227 332.828 47.416V49.292C332.828 49.3853 332.781 49.4693 332.688 49.544C332.613 49.6187 332.538 49.656 332.464 49.656H325.268V53.828H335.824C335.917 53.828 336.01 53.884 336.104 53.996C336.197 54.0893 336.244 54.1827 336.244 54.276V56.04ZM362.576 55.872C362.576 55.9653 362.529 56.0587 362.436 56.152C362.342 56.2453 362.249 56.292 362.156 56.292H337.768C337.656 56.292 337.562 56.2453 337.488 56.152C337.413 56.0587 337.376 55.9653 337.376 55.872V54.024C337.376 53.912 337.413 53.8187 337.488 53.744C337.562 53.6507 337.656 53.604 337.768 53.604H354.652C354.95 51.924 355.174 49.9267 355.324 47.612C355.492 45.2787 355.576 42.7867 355.576 40.136C355.576 39.8187 355.538 39.5947 355.464 39.464C355.389 39.3147 355.193 39.24 354.876 39.24H341.324C341.23 39.24 341.146 39.2027 341.072 39.128C340.997 39.0347 340.96 38.9413 340.96 38.848V37C340.96 36.9067 340.997 36.8227 341.072 36.748C341.146 36.6547 341.23 36.608 341.324 36.608H356.92C357.741 36.608 358.264 36.8227 358.488 37.252C358.73 37.6627 358.852 38.2133 358.852 38.904C358.852 41.4053 358.777 43.8787 358.628 46.324C358.497 48.7693 358.226 51.196 357.816 53.604H362.156C362.249 53.604 362.342 53.6507 362.436 53.744C362.529 53.8373 362.576 53.9307 362.576 54.024V55.872ZM386.864 60.128C386.864 60.24 386.817 60.324 386.724 60.38C386.63 60.436 386.537 60.464 386.444 60.464H371.94C371.1 60.464 370.53 60.3147 370.232 60.016C369.952 59.7173 369.812 59.204 369.812 58.476V52.148C369.812 52.0547 369.849 51.9707 369.924 51.896C370.017 51.8027 370.11 51.756 370.204 51.756H372.64C372.752 51.756 372.845 51.8027 372.92 51.896C373.013 51.9707 373.06 52.0547 373.06 52.148V57.328C373.06 57.5147 373.097 57.636 373.172 57.692C373.246 57.748 373.377 57.776 373.564 57.776H386.444C386.537 57.776 386.63 57.8133 386.724 57.888C386.817 57.944 386.864 58.0187 386.864 58.112V60.128ZM385.996 52.932C385.996 53.1747 385.874 53.296 385.632 53.296H383.14C382.897 53.296 382.776 53.1653 382.776 52.904V34.788C382.776 34.5453 382.897 34.424 383.14 34.424H385.632C385.874 34.424 385.996 34.5453 385.996 34.788V52.932ZM378.8 42.32C378.8 43.2533 378.632 44.1307 378.296 44.952C377.96 45.7733 377.484 46.492 376.868 47.108C376.27 47.7053 375.552 48.1813 374.712 48.536C373.872 48.8907 372.948 49.068 371.94 49.068C370.932 49.068 370.017 48.8907 369.196 48.536C368.374 48.1813 367.665 47.7053 367.068 47.108C366.47 46.492 366.004 45.7733 365.668 44.952C365.35 44.1307 365.192 43.2533 365.192 42.32C365.192 41.424 365.35 40.5747 365.668 39.772C366.004 38.9507 366.47 38.232 367.068 37.616C367.665 36.9813 368.374 36.4867 369.196 36.132C370.017 35.7587 370.932 35.572 371.94 35.572C372.948 35.572 373.872 35.7587 374.712 36.132C375.552 36.4867 376.27 36.9813 376.868 37.616C377.484 38.232 377.96 38.9507 378.296 39.772C378.632 40.5747 378.8 41.424 378.8 42.32ZM375.608 42.376C375.608 41.8347 375.514 41.3307 375.328 40.864C375.16 40.3787 374.908 39.9587 374.572 39.604C374.254 39.2493 373.872 38.9693 373.424 38.764C372.976 38.5587 372.481 38.456 371.94 38.456C371.398 38.456 370.904 38.5587 370.456 38.764C370.026 38.9693 369.653 39.2493 369.336 39.604C369.018 39.9587 368.766 40.3787 368.58 40.864C368.412 41.3307 368.328 41.8347 368.328 42.376C368.328 42.936 368.412 43.4587 368.58 43.944C368.766 44.4293 369.018 44.8493 369.336 45.204C369.653 45.5587 370.026 45.8387 370.456 46.044C370.904 46.2493 371.398 46.352 371.94 46.352C372.481 46.352 372.976 46.2493 373.424 46.044C373.872 45.8387 374.254 45.5587 374.572 45.204C374.908 44.8493 375.16 44.4293 375.328 43.944C375.514 43.4587 375.608 42.936 375.608 42.376Z" fill="black" fill-opacity="0.85"/>
<path d="M42.0002 42.2888V47.6061H49.9422C49.6232 49.8889 47.5443 54.2931 42.0002 54.2931C37.2235 54.2931 33.3212 49.9071 33.3212 44.5046C33.3212 39.102 37.2235 34.7161 42.0002 34.7161C44.7255 34.7161 46.5377 36.0005 47.5772 37.1023L51.375 33.0512C48.933 30.531 45.7733 29 42.0002 29C34.2562 29.0091 28 35.9335 28 44.5046C28 53.0756 34.2562 60 42.0002 60C50.077 60 55.4423 53.7117 55.4423 44.8576C55.4423 43.841 55.3405 43.0588 55.2195 42.2888H42.0002ZM72 41.8413H67.875V37.2758H63.75V41.8413H59.625V46.4069H63.75V50.9724H67.875V46.4069H72V41.8413Z" fill="black"/>
</svg>
