<svg width="current" height="current" viewBox="0 0 30 19" fill="currentColor" xmlns="http://www.w3.org/2000/svg">
<path d="M9.79016 7.90966V11.0418H15.0451C14.834 12.3864 13.4584 14.9807 9.79016 14.9807C6.62954 14.9807 4.04755 12.3972 4.04755 9.21486C4.04755 6.03253 6.62954 3.44902 9.79016 3.44902C11.5934 3.44902 12.7925 4.20561 13.4803 4.85462L15.9931 2.46833C14.3773 0.98384 12.2866 0.0820312 9.79016 0.0820312C4.66621 0.0874098 0.526657 4.16617 0.526657 9.21486C0.526657 14.2636 4.66621 18.3423 9.79016 18.3423C15.1343 18.3423 18.6843 14.6383 18.6843 9.42283C18.6843 8.82401 18.617 8.36325 18.5369 7.90966H9.79016ZM29.64 7.64611H26.9106V4.95682H24.1812V7.64611H21.4519V10.3354H24.1812V13.0247H26.9106V10.3354H29.64V7.64611Z" fill="current"/>
</svg>
