<svg width="100%" height="100%" viewBox="0 0 512 178" fill="currentColor" xmlns="http://www.w3.org/2000/svg">
<path d="M291.621 44.7319C291.051 50.8119 290.651 61.5719 294.241 66.1519C294.241 66.1519 292.551 54.3319 307.701 39.5019C313.801 33.5319 315.211 25.4119 313.081 19.3219C311.871 15.8719 309.661 13.0219 307.741 11.0319C306.621 9.86185 307.481 7.93185 309.111 8.00185C318.971 8.44185 334.951 11.1819 341.741 28.2219C344.721 35.7019 344.941 43.4319 343.521 51.2919C342.621 56.3119 339.421 67.4719 346.721 68.8419C351.931 69.8218 354.451 65.6819 355.581 62.7019C356.051 61.4619 357.681 61.1519 358.561 62.1419C367.361 72.1519 368.111 83.9418 366.291 94.0919C362.771 113.712 342.901 127.992 323.161 127.992C298.501 127.992 278.871 113.882 273.781 88.3419C271.731 78.0319 272.771 57.6319 288.671 43.2319C289.851 42.1519 291.781 43.1119 291.621 44.7319Z" fill="url(#paint0_radial_107_3036)"/>
<path d="M332.171 81.4221C323.081 69.7221 327.151 56.3721 329.381 51.0521C329.681 50.3521 328.881 49.6921 328.251 50.1221C324.341 52.7821 316.331 59.0421 312.601 67.8521C307.551 79.7621 307.911 85.5921 310.901 92.7121C312.701 97.0021 310.611 97.9121 309.561 98.0721C308.541 98.2321 307.601 97.5521 306.851 96.8421C304.693 94.7707 303.156 92.1388 302.411 89.2421C302.251 88.6221 301.441 88.4521 301.071 88.9621C298.271 92.8321 296.821 99.0421 296.751 103.432C296.531 117.002 307.741 128.002 321.301 128.002C338.391 128.002 350.841 109.102 341.021 93.3021C338.171 88.7021 335.491 85.6921 332.171 81.4221Z" fill="url(#paint1_radial_107_3036)"/>
<path d="M495.84 15.3599H400.16C398.92 15.3599 397.92 16.3599 397.92 17.5999V35.5899C397.92 36.8299 398.92 37.8299 400.16 37.8299H434.81V118.56C434.81 119.8 435.81 120.8 437.05 120.8H458.95C460.19 120.8 461.19 119.8 461.19 118.56V37.8299H495.84C497.08 37.8299 498.08 36.8299 498.08 35.5899V17.5999C498.08 16.3599 497.08 15.3599 495.84 15.3599Z" fill="current"/>
<path d="M226.89 36.5101C228.12 36.5101 229.13 35.5101 229.13 34.2701V17.5501C229.13 16.3101 228.12 15.3101 226.89 15.3101H157.1C155.86 15.3101 154.86 16.3101 154.86 17.5501V118.52C154.86 119.76 155.86 120.76 157.1 120.76H226.9C228.13 120.76 229.14 119.76 229.14 118.52V101.8C229.14 100.56 228.13 99.5601 226.9 99.5601H181.24V77.5101H216.36C217.59 77.5101 218.6 76.5101 218.6 75.2701V58.5501C218.6 57.3101 217.59 56.3101 216.36 56.3101H181.24V36.5101H226.89Z" fill="current"/>
<path d="M109.48 16.3398H84.84C83.56 16.3398 82.51 17.3798 82.51 18.6698V54.9398H45.5V18.6798C45.5 17.3898 44.46 16.3498 43.16 16.3498H18.53C17.9111 16.3498 17.3174 16.595 16.8789 17.0317C16.4403 17.4683 16.1926 18.061 16.19 18.6798V118.64C16.19 119.93 17.24 120.97 18.53 120.97H43.16C43.7789 120.97 44.3726 120.725 44.8111 120.288C45.2497 119.851 45.4974 119.259 45.5 118.64V76.1498H82.52V118.63C82.52 119.92 83.57 120.96 84.85 120.96H109.49C110.78 120.96 111.82 119.91 111.82 118.63V18.6798C111.817 18.06 111.57 17.4664 111.132 17.0281C110.693 16.5899 110.1 16.3425 109.48 16.3398Z" fill="current"/>
<path d="M69.5781 172V156H72.4766V162.773H79.8906V156H82.7969V172H79.8906V165.203H72.4766V172H69.5781ZM87.582 176.5C87.1966 176.5 86.8398 176.469 86.5117 176.406C86.1888 176.349 85.931 176.281 85.7383 176.203L86.3945 174C86.806 174.12 87.1732 174.177 87.4961 174.172C87.819 174.167 88.1029 174.065 88.3477 173.867C88.5977 173.674 88.8086 173.352 88.9805 172.898L89.2227 172.25L84.8711 160H87.8711L90.6367 169.062H90.7617L93.5352 160H96.543L91.7383 173.453C91.5143 174.089 91.2174 174.633 90.8477 175.086C90.4779 175.544 90.0247 175.893 89.4883 176.133C88.957 176.378 88.3216 176.5 87.582 176.5ZM106.148 166.953V160H108.977V172H106.234V169.867H106.109C105.839 170.539 105.393 171.089 104.773 171.516C104.159 171.943 103.401 172.156 102.5 172.156C101.714 172.156 101.018 171.982 100.414 171.633C99.8151 171.279 99.3464 170.766 99.0078 170.094C98.6693 169.417 98.5 168.599 98.5 167.641V160H101.328V167.203C101.328 167.964 101.536 168.568 101.953 169.016C102.37 169.464 102.917 169.687 103.594 169.687C104.01 169.687 104.414 169.586 104.805 169.383C105.195 169.18 105.516 168.878 105.766 168.477C106.021 168.07 106.148 167.562 106.148 166.953ZM114.713 164.969V172H111.885V160H114.588V162.039H114.729C115.005 161.367 115.445 160.833 116.049 160.437C116.658 160.042 117.411 159.844 118.307 159.844C119.135 159.844 119.856 160.021 120.471 160.375C121.09 160.729 121.57 161.242 121.908 161.914C122.252 162.586 122.421 163.401 122.416 164.359V172H119.588V164.797C119.588 163.995 119.38 163.367 118.963 162.914C118.551 162.461 117.981 162.234 117.252 162.234C116.757 162.234 116.317 162.344 115.932 162.562C115.551 162.776 115.252 163.086 115.033 163.492C114.82 163.898 114.713 164.391 114.713 164.969ZM129.744 172.211C128.801 172.211 127.958 171.969 127.213 171.484C126.468 171 125.88 170.297 125.447 169.375C125.015 168.453 124.799 167.333 124.799 166.016C124.799 164.682 125.018 163.557 125.455 162.641C125.898 161.719 126.494 161.023 127.244 160.555C127.994 160.081 128.83 159.844 129.752 159.844C130.455 159.844 131.033 159.964 131.486 160.203C131.939 160.437 132.299 160.721 132.564 161.055C132.83 161.383 133.036 161.693 133.182 161.984H133.299V156H136.135V172H133.354V170.109H133.182C133.036 170.401 132.825 170.711 132.549 171.039C132.273 171.362 131.908 171.638 131.455 171.867C131.002 172.096 130.432 172.211 129.744 172.211ZM130.533 169.891C131.132 169.891 131.643 169.729 132.064 169.406C132.486 169.078 132.807 168.622 133.025 168.039C133.244 167.456 133.354 166.776 133.354 166C133.354 165.224 133.244 164.549 133.025 163.977C132.812 163.404 132.494 162.958 132.072 162.641C131.656 162.323 131.143 162.164 130.533 162.164C129.903 162.164 129.377 162.328 128.955 162.656C128.533 162.984 128.215 163.437 128.002 164.016C127.788 164.594 127.682 165.255 127.682 166C127.682 166.75 127.788 167.419 128.002 168.008C128.221 168.591 128.541 169.052 128.963 169.391C129.39 169.724 129.913 169.891 130.533 169.891ZM142.602 172.242C141.841 172.242 141.156 172.107 140.547 171.836C139.943 171.56 139.464 171.154 139.109 170.617C138.76 170.081 138.586 169.419 138.586 168.633C138.586 167.956 138.711 167.396 138.961 166.953C139.211 166.51 139.552 166.156 139.984 165.891C140.417 165.625 140.904 165.424 141.445 165.289C141.992 165.148 142.557 165.047 143.141 164.984C143.844 164.911 144.414 164.846 144.852 164.789C145.289 164.727 145.607 164.633 145.805 164.508C146.008 164.378 146.109 164.177 146.109 163.906V163.859C146.109 163.271 145.935 162.815 145.586 162.492C145.237 162.169 144.734 162.008 144.078 162.008C143.385 162.008 142.836 162.159 142.43 162.461C142.029 162.763 141.758 163.12 141.617 163.531L138.977 163.156C139.185 162.427 139.529 161.818 140.008 161.328C140.487 160.833 141.073 160.464 141.766 160.219C142.458 159.969 143.224 159.844 144.063 159.844C144.641 159.844 145.216 159.911 145.789 160.047C146.362 160.182 146.885 160.406 147.359 160.719C147.833 161.026 148.214 161.445 148.5 161.977C148.792 162.508 148.938 163.172 148.938 163.969V172H146.219V170.352H146.125C145.953 170.685 145.711 170.997 145.398 171.289C145.091 171.576 144.703 171.807 144.234 171.984C143.771 172.156 143.227 172.242 142.602 172.242ZM143.336 170.164C143.904 170.164 144.396 170.052 144.813 169.828C145.229 169.599 145.549 169.297 145.773 168.922C146.003 168.547 146.117 168.138 146.117 167.695V166.281C146.029 166.354 145.878 166.422 145.664 166.484C145.456 166.547 145.221 166.602 144.961 166.648C144.701 166.695 144.443 166.737 144.188 166.773C143.932 166.81 143.711 166.841 143.523 166.867C143.102 166.924 142.724 167.018 142.391 167.148C142.057 167.279 141.794 167.461 141.602 167.695C141.409 167.924 141.313 168.221 141.313 168.586C141.313 169.107 141.503 169.5 141.883 169.766C142.263 170.031 142.747 170.164 143.336 170.164ZM151.781 172V160H154.609V172H151.781ZM153.203 158.297C152.755 158.297 152.37 158.148 152.047 157.852C151.724 157.549 151.563 157.187 151.563 156.766C151.563 156.339 151.724 155.977 152.047 155.68C152.37 155.378 152.755 155.227 153.203 155.227C153.656 155.227 154.042 155.378 154.359 155.68C154.682 155.977 154.844 156.339 154.844 156.766C154.844 157.187 154.682 157.549 154.359 157.852C154.042 158.148 153.656 158.297 153.203 158.297ZM165.154 172H162.061L167.693 156H171.271L176.912 172H173.818L169.545 159.281H169.42L165.154 172ZM165.256 165.727H173.693V168.055H165.256V165.727ZM186.543 166.953V160H189.371V172H186.629V169.867H186.504C186.233 170.539 185.788 171.089 185.168 171.516C184.553 171.943 183.796 172.156 182.895 172.156C182.108 172.156 181.413 171.982 180.809 171.633C180.21 171.279 179.741 170.766 179.402 170.094C179.064 169.417 178.895 168.599 178.895 167.641V160H181.723V167.203C181.723 167.964 181.931 168.568 182.348 169.016C182.764 169.464 183.311 169.687 183.988 169.687C184.405 169.687 184.809 169.586 185.199 169.383C185.59 169.18 185.91 168.878 186.16 168.477C186.415 168.07 186.543 167.562 186.543 166.953ZM198.271 160V162.187H191.373V160H198.271ZM193.076 157.125H195.904V168.391C195.904 168.771 195.962 169.063 196.076 169.266C196.196 169.464 196.352 169.599 196.545 169.672C196.738 169.745 196.951 169.781 197.186 169.781C197.363 169.781 197.524 169.768 197.67 169.742C197.821 169.716 197.936 169.693 198.014 169.672L198.49 171.883C198.339 171.935 198.123 171.992 197.842 172.055C197.566 172.117 197.227 172.154 196.826 172.164C196.118 172.185 195.48 172.078 194.912 171.844C194.344 171.604 193.894 171.234 193.561 170.734C193.232 170.234 193.071 169.609 193.076 168.859V157.125ZM205.742 172.234C204.57 172.234 203.555 171.977 202.695 171.461C201.836 170.945 201.169 170.224 200.695 169.297C200.227 168.37 199.992 167.286 199.992 166.047C199.992 164.807 200.227 163.721 200.695 162.789C201.169 161.857 201.836 161.133 202.695 160.617C203.555 160.102 204.57 159.844 205.742 159.844C206.914 159.844 207.93 160.102 208.789 160.617C209.648 161.133 210.313 161.857 210.781 162.789C211.255 163.721 211.492 164.807 211.492 166.047C211.492 167.286 211.255 168.37 210.781 169.297C210.313 170.224 209.648 170.945 208.789 171.461C207.93 171.977 206.914 172.234 205.742 172.234ZM205.758 169.969C206.393 169.969 206.924 169.794 207.352 169.445C207.779 169.091 208.096 168.617 208.305 168.023C208.518 167.43 208.625 166.768 208.625 166.039C208.625 165.305 208.518 164.641 208.305 164.047C208.096 163.448 207.779 162.971 207.352 162.617C206.924 162.263 206.393 162.086 205.758 162.086C205.107 162.086 204.565 162.263 204.133 162.617C203.706 162.971 203.385 163.448 203.172 164.047C202.964 164.641 202.859 165.305 202.859 166.039C202.859 166.768 202.964 167.43 203.172 168.023C203.385 168.617 203.706 169.091 204.133 169.445C204.565 169.794 205.107 169.969 205.758 169.969ZM214.018 172V156H224.424V158.43H216.916V162.773H223.885V165.203H216.916V169.57H224.486V172H214.018ZM237.975 160L233.701 172H230.576L226.303 160H229.318L232.076 168.914H232.201L234.967 160H237.975ZM244.836 172.234C243.633 172.234 242.594 171.984 241.719 171.484C240.849 170.979 240.18 170.266 239.711 169.344C239.242 168.417 239.008 167.326 239.008 166.07C239.008 164.836 239.242 163.753 239.711 162.82C240.185 161.883 240.846 161.154 241.695 160.633C242.544 160.107 243.542 159.844 244.688 159.844C245.427 159.844 246.125 159.964 246.781 160.203C247.443 160.437 248.026 160.802 248.531 161.297C249.042 161.792 249.443 162.422 249.734 163.187C250.026 163.948 250.172 164.854 250.172 165.906V166.773H240.336V164.867H247.461C247.456 164.326 247.339 163.844 247.109 163.422C246.88 162.995 246.56 162.659 246.148 162.414C245.742 162.169 245.268 162.047 244.727 162.047C244.148 162.047 243.641 162.187 243.203 162.469C242.766 162.745 242.424 163.109 242.18 163.562C241.94 164.01 241.818 164.503 241.813 165.039V166.703C241.813 167.401 241.94 168 242.195 168.5C242.451 168.995 242.807 169.375 243.266 169.641C243.724 169.901 244.26 170.031 244.875 170.031C245.286 170.031 245.659 169.974 245.992 169.859C246.326 169.74 246.615 169.565 246.859 169.336C247.104 169.107 247.289 168.823 247.414 168.484L250.055 168.781C249.888 169.479 249.57 170.089 249.102 170.609C248.638 171.125 248.044 171.526 247.32 171.812C246.596 172.094 245.768 172.234 244.836 172.234ZM252.564 172V160H255.307V162H255.432C255.65 161.307 256.025 160.773 256.557 160.398C257.093 160.018 257.705 159.828 258.393 159.828C258.549 159.828 258.723 159.836 258.916 159.852C259.114 159.862 259.278 159.88 259.408 159.906V162.508C259.288 162.466 259.098 162.43 258.838 162.398C258.583 162.362 258.335 162.344 258.096 162.344C257.58 162.344 257.117 162.456 256.705 162.68C256.299 162.898 255.979 163.203 255.744 163.594C255.51 163.984 255.393 164.435 255.393 164.945V172H252.564ZM268.924 172H265.83L271.463 156H275.041L280.682 172H277.588L273.314 159.281H273.189L268.924 172ZM269.025 165.727H277.463V168.055H269.025V165.727ZM290.313 166.953V160H293.141V172H290.398V169.867H290.273C290.003 170.539 289.557 171.089 288.938 171.516C288.323 171.943 287.565 172.156 286.664 172.156C285.878 172.156 285.182 171.982 284.578 171.633C283.979 171.279 283.51 170.766 283.172 170.094C282.833 169.417 282.664 168.599 282.664 167.641V160H285.492V167.203C285.492 167.964 285.701 168.568 286.117 169.016C286.534 169.464 287.081 169.687 287.758 169.687C288.174 169.687 288.578 169.586 288.969 169.383C289.359 169.18 289.68 168.878 289.93 168.477C290.185 168.07 290.313 167.562 290.313 166.953ZM302.041 160V162.187H295.143V160H302.041ZM296.846 157.125H299.674V168.391C299.674 168.771 299.731 169.063 299.846 169.266C299.965 169.464 300.122 169.599 300.314 169.672C300.507 169.745 300.721 169.781 300.955 169.781C301.132 169.781 301.294 169.768 301.439 169.742C301.59 169.716 301.705 169.693 301.783 169.672L302.26 171.883C302.109 171.935 301.893 171.992 301.611 172.055C301.335 172.117 300.997 172.154 300.596 172.164C299.887 172.185 299.249 172.078 298.682 171.844C298.114 171.604 297.663 171.234 297.33 170.734C297.002 170.234 296.84 169.609 296.846 168.859V157.125ZM309.512 172.234C308.34 172.234 307.324 171.977 306.465 171.461C305.605 170.945 304.939 170.224 304.465 169.297C303.996 168.37 303.762 167.286 303.762 166.047C303.762 164.807 303.996 163.721 304.465 162.789C304.939 161.857 305.605 161.133 306.465 160.617C307.324 160.102 308.34 159.844 309.512 159.844C310.684 159.844 311.699 160.102 312.559 160.617C313.418 161.133 314.082 161.857 314.551 162.789C315.025 163.721 315.262 164.807 315.262 166.047C315.262 167.286 315.025 168.37 314.551 169.297C314.082 170.224 313.418 170.945 312.559 171.461C311.699 171.977 310.684 172.234 309.512 172.234ZM309.527 169.969C310.163 169.969 310.694 169.794 311.121 169.445C311.548 169.091 311.866 168.617 312.074 168.023C312.288 167.43 312.395 166.768 312.395 166.039C312.395 165.305 312.288 164.641 312.074 164.047C311.866 163.448 311.548 162.971 311.121 162.617C310.694 162.263 310.163 162.086 309.527 162.086C308.876 162.086 308.335 162.263 307.902 162.617C307.475 162.971 307.155 163.448 306.941 164.047C306.733 164.641 306.629 165.305 306.629 166.039C306.629 166.768 306.733 167.43 306.941 168.023C307.155 168.617 307.475 169.091 307.902 169.445C308.335 169.794 308.876 169.969 309.527 169.969ZM322.541 158.43V156H335.307V158.43H330.361V172H327.486V158.43H322.541ZM336.396 172V160H339.139V162H339.264C339.482 161.307 339.857 160.773 340.389 160.398C340.925 160.018 341.537 159.828 342.225 159.828C342.381 159.828 342.555 159.836 342.748 159.852C342.946 159.862 343.11 159.88 343.24 159.906V162.508C343.12 162.466 342.93 162.43 342.67 162.398C342.415 162.362 342.167 162.344 341.928 162.344C341.412 162.344 340.949 162.456 340.537 162.68C340.131 162.898 339.811 163.203 339.576 163.594C339.342 163.984 339.225 164.435 339.225 164.945V172H336.396ZM348.357 172.242C347.597 172.242 346.912 172.107 346.303 171.836C345.699 171.56 345.219 171.154 344.865 170.617C344.516 170.081 344.342 169.419 344.342 168.633C344.342 167.956 344.467 167.396 344.717 166.953C344.967 166.51 345.308 166.156 345.74 165.891C346.173 165.625 346.66 165.424 347.201 165.289C347.748 165.148 348.313 165.047 348.896 164.984C349.6 164.911 350.17 164.846 350.607 164.789C351.045 164.727 351.363 164.633 351.561 164.508C351.764 164.378 351.865 164.177 351.865 163.906V163.859C351.865 163.271 351.691 162.815 351.342 162.492C350.993 162.169 350.49 162.008 349.834 162.008C349.141 162.008 348.592 162.159 348.186 162.461C347.785 162.763 347.514 163.12 347.373 163.531L344.732 163.156C344.941 162.427 345.285 161.818 345.764 161.328C346.243 160.833 346.829 160.464 347.521 160.219C348.214 159.969 348.98 159.844 349.818 159.844C350.396 159.844 350.972 159.911 351.545 160.047C352.118 160.182 352.641 160.406 353.115 160.719C353.589 161.026 353.969 161.445 354.256 161.977C354.548 162.508 354.693 163.172 354.693 163.969V172H351.975V170.352H351.881C351.709 170.685 351.467 170.997 351.154 171.289C350.847 171.576 350.459 171.807 349.99 171.984C349.527 172.156 348.982 172.242 348.357 172.242ZM349.092 170.164C349.66 170.164 350.152 170.052 350.568 169.828C350.985 169.599 351.305 169.297 351.529 168.922C351.758 168.547 351.873 168.138 351.873 167.695V166.281C351.785 166.354 351.633 166.422 351.42 166.484C351.212 166.547 350.977 166.602 350.717 166.648C350.456 166.695 350.199 166.737 349.943 166.773C349.688 166.81 349.467 166.841 349.279 166.867C348.857 166.924 348.48 167.018 348.146 167.148C347.813 167.279 347.55 167.461 347.357 167.695C347.165 167.924 347.068 168.221 347.068 168.586C347.068 169.107 347.258 169.5 347.639 169.766C348.019 170.031 348.503 170.164 349.092 170.164ZM360.365 164.969V172H357.537V160H360.24V162.039H360.381C360.657 161.367 361.097 160.833 361.701 160.437C362.311 160.042 363.063 159.844 363.959 159.844C364.787 159.844 365.508 160.021 366.123 160.375C366.743 160.729 367.222 161.242 367.561 161.914C367.904 162.586 368.074 163.401 368.068 164.359V172H365.24V164.797C365.24 163.995 365.032 163.367 364.615 162.914C364.204 162.461 363.633 162.234 362.904 162.234C362.41 162.234 361.969 162.344 361.584 162.562C361.204 162.776 360.904 163.086 360.686 163.492C360.472 163.898 360.365 164.391 360.365 164.969ZM380.428 163.172L377.85 163.453C377.777 163.193 377.649 162.948 377.467 162.719C377.29 162.49 377.05 162.305 376.748 162.164C376.446 162.023 376.076 161.953 375.639 161.953C375.05 161.953 374.555 162.081 374.154 162.336C373.758 162.591 373.563 162.922 373.568 163.328C373.563 163.677 373.691 163.961 373.951 164.18C374.217 164.398 374.654 164.578 375.264 164.719L377.311 165.156C378.446 165.401 379.29 165.789 379.842 166.32C380.399 166.852 380.68 167.547 380.686 168.406C380.68 169.161 380.459 169.828 380.021 170.406C379.589 170.979 378.988 171.427 378.217 171.75C377.446 172.073 376.561 172.234 375.561 172.234C374.092 172.234 372.91 171.927 372.014 171.312C371.118 170.693 370.584 169.831 370.412 168.727L373.17 168.461C373.295 169.003 373.561 169.411 373.967 169.687C374.373 169.964 374.902 170.102 375.553 170.102C376.225 170.102 376.764 169.964 377.17 169.687C377.581 169.411 377.787 169.07 377.787 168.664C377.787 168.32 377.654 168.036 377.389 167.812C377.128 167.589 376.722 167.417 376.17 167.297L374.123 166.867C372.972 166.628 372.12 166.224 371.568 165.656C371.016 165.083 370.743 164.359 370.748 163.484C370.743 162.745 370.943 162.104 371.35 161.562C371.761 161.016 372.331 160.594 373.061 160.297C373.795 159.995 374.641 159.844 375.6 159.844C377.006 159.844 378.113 160.143 378.92 160.742C379.732 161.341 380.235 162.151 380.428 163.172ZM385.846 156V172H383.018V156H385.846ZM392.207 172.242C391.447 172.242 390.762 172.107 390.152 171.836C389.548 171.56 389.069 171.154 388.715 170.617C388.366 170.081 388.191 169.419 388.191 168.633C388.191 167.956 388.316 167.396 388.566 166.953C388.816 166.51 389.158 166.156 389.59 165.891C390.022 165.625 390.509 165.424 391.051 165.289C391.598 165.148 392.163 165.047 392.746 164.984C393.449 164.911 394.02 164.846 394.457 164.789C394.895 164.727 395.212 164.633 395.41 164.508C395.613 164.378 395.715 164.177 395.715 163.906V163.859C395.715 163.271 395.54 162.815 395.191 162.492C394.842 162.169 394.34 162.008 393.684 162.008C392.991 162.008 392.441 162.159 392.035 162.461C391.634 162.763 391.363 163.12 391.223 163.531L388.582 163.156C388.79 162.427 389.134 161.818 389.613 161.328C390.092 160.833 390.678 160.464 391.371 160.219C392.064 159.969 392.829 159.844 393.668 159.844C394.246 159.844 394.822 159.911 395.395 160.047C395.967 160.182 396.491 160.406 396.965 160.719C397.439 161.026 397.819 161.445 398.105 161.977C398.397 162.508 398.543 163.172 398.543 163.969V172H395.824V170.352H395.73C395.559 170.685 395.316 170.997 395.004 171.289C394.697 171.576 394.309 171.807 393.84 171.984C393.376 172.156 392.832 172.242 392.207 172.242ZM392.941 170.164C393.509 170.164 394.001 170.052 394.418 169.828C394.835 169.599 395.155 169.297 395.379 168.922C395.608 168.547 395.723 168.138 395.723 167.695V166.281C395.634 166.354 395.483 166.422 395.27 166.484C395.061 166.547 394.827 166.602 394.566 166.648C394.306 166.695 394.048 166.737 393.793 166.773C393.538 166.81 393.316 166.841 393.129 166.867C392.707 166.924 392.329 167.018 391.996 167.148C391.663 167.279 391.4 167.461 391.207 167.695C391.014 167.924 390.918 168.221 390.918 168.586C390.918 169.107 391.108 169.5 391.488 169.766C391.868 170.031 392.353 170.164 392.941 170.164ZM407.379 160V162.187H400.48V160H407.379ZM402.184 157.125H405.012V168.391C405.012 168.771 405.069 169.063 405.184 169.266C405.303 169.464 405.46 169.599 405.652 169.672C405.845 169.745 406.059 169.781 406.293 169.781C406.47 169.781 406.632 169.768 406.777 169.742C406.928 169.716 407.043 169.693 407.121 169.672L407.598 171.883C407.447 171.935 407.23 171.992 406.949 172.055C406.673 172.117 406.335 172.154 405.934 172.164C405.225 172.185 404.587 172.078 404.02 171.844C403.452 171.604 403.001 171.234 402.668 170.734C402.34 170.234 402.178 169.609 402.184 168.859V157.125ZM414.85 172.234C413.678 172.234 412.662 171.977 411.803 171.461C410.943 170.945 410.277 170.224 409.803 169.297C409.334 168.37 409.1 167.286 409.1 166.047C409.1 164.807 409.334 163.721 409.803 162.789C410.277 161.857 410.943 161.133 411.803 160.617C412.662 160.102 413.678 159.844 414.85 159.844C416.021 159.844 417.037 160.102 417.896 160.617C418.756 161.133 419.42 161.857 419.889 162.789C420.363 163.721 420.6 164.807 420.6 166.047C420.6 167.286 420.363 168.37 419.889 169.297C419.42 170.224 418.756 170.945 417.896 171.461C417.037 171.977 416.021 172.234 414.85 172.234ZM414.865 169.969C415.501 169.969 416.032 169.794 416.459 169.445C416.886 169.091 417.204 168.617 417.412 168.023C417.626 167.43 417.732 166.768 417.732 166.039C417.732 165.305 417.626 164.641 417.412 164.047C417.204 163.448 416.886 162.971 416.459 162.617C416.032 162.263 415.501 162.086 414.865 162.086C414.214 162.086 413.673 162.263 413.24 162.617C412.813 162.971 412.493 163.448 412.279 164.047C412.071 164.641 411.967 165.305 411.967 166.039C411.967 166.768 412.071 167.43 412.279 168.023C412.493 168.617 412.813 169.091 413.24 169.445C413.673 169.794 414.214 169.969 414.865 169.969ZM423 172V160H425.742V162H425.867C426.086 161.307 426.461 160.773 426.992 160.398C427.529 160.018 428.141 159.828 428.828 159.828C428.984 159.828 429.159 159.836 429.352 159.852C429.549 159.862 429.714 159.88 429.844 159.906V162.508C429.724 162.466 429.534 162.43 429.273 162.398C429.018 162.362 428.771 162.344 428.531 162.344C428.016 162.344 427.552 162.456 427.141 162.68C426.734 162.898 426.414 163.203 426.18 163.594C425.945 163.984 425.828 164.435 425.828 164.945V172H423Z" fill="current"/>
<defs>
<radialGradient id="paint0_radial_107_3036" cx="0" cy="0" r="1" gradientUnits="userSpaceOnUse" gradientTransform="translate(318.277 128.303) rotate(-179.751) scale(70.5877 115.82)">
<stop offset="0.314" stop-color="#FF9800"/>
<stop offset="0.662" stop-color="#FF6D00"/>
<stop offset="0.972" stop-color="#F44336"/>
</radialGradient>
<radialGradient id="paint1_radial_107_3036" cx="0" cy="0" r="1" gradientUnits="userSpaceOnUse" gradientTransform="translate(322.241 58.0604) rotate(90.5787) scale(73.8564 55.5825)">
<stop offset="0.214" stop-color="#FFF176"/>
<stop offset="0.328" stop-color="#FFF27D"/>
<stop offset="0.487" stop-color="#FFF48F"/>
<stop offset="0.672" stop-color="#FFF7AD"/>
<stop offset="0.793" stop-color="#FFF9C4"/>
<stop offset="0.822" stop-color="#FFF8BD" stop-opacity="0.804"/>
<stop offset="0.863" stop-color="#FFF6AB" stop-opacity="0.529"/>
<stop offset="0.91" stop-color="#FFF38D" stop-opacity="0.209"/>
<stop offset="0.941" stop-color="#FFF176" stop-opacity="0"/>
</radialGradient>
</defs>
</svg>
