<svg width="100%" height="100%" viewBox="0 0 30 30" fill="none" xmlns="http://www.w3.org/2000/svg">
<path d="M1.57895 30C1.16018 30 0.758573 29.842 0.462463 29.5607C0.166353 29.2794 0 28.8978 0 28.5V1.5C0 1.10218 0.166353 0.720644 0.462463 0.43934C0.758573 0.158035 1.16018 0 1.57895 0H23.6842C24.103 0 24.5046 0.158035 24.8007 0.43934C25.0968 0.720644 25.2632 1.10218 25.2632 1.5V6H22.1053V3H3.15789V27H22.1053V24H25.2632V28.5C25.2632 28.8978 25.0968 29.2794 24.8007 29.5607C24.5046 29.842 24.103 30 23.6842 30H1.57895ZM22.1053 21V16.5H11.0526V13.5H22.1053V9L30 15L22.1053 21Z" fill="white"/>
</svg>
